<svg xmlns="http://www.w3.org/2000/svg" version="1.1" xmlns:xlink="http://www.w3.org/1999/xlink" xmlns:svgjs="http://svgjs.dev/svgjs" width="1500" height="469" viewBox="0 0 1500 469"><g transform="matrix(1,0,0,1,-0.9090909090909918,-0.9884165946619135)"><svg viewBox="0 0 396 124" data-background-color="#324d8c" preserveAspectRatio="xMidYMid meet" height="469" width="1500" xmlns="http://www.w3.org/2000/svg" xmlns:xlink="http://www.w3.org/1999/xlink"><g id="tight-bounds" transform="matrix(1,0,0,1,0.2400000000000091,0.26132976063556157)"><svg viewBox="0 0 395.52 123.39838300056839" height="123.39838300056839" width="395.52"><g><svg viewBox="0 0 428.3603673914505 133.6442573767051" height="123.39838300056839" width="395.52"><g transform="matrix(1,0,0,1,32.84036739145046,41.298015362014674)"><svg viewBox="0 0 395.52000000000004 51.04822665267575" height="51.04822665267575" width="395.52000000000004"><g id="textblocktransform"><svg viewBox="0 0 395.52000000000004 51.04822665267575" height="51.04822665267575" width="395.52000000000004" id="textblock"><g><svg viewBox="0 0 395.52000000000004 51.04822665267575" height="51.04822665267575" width="395.52000000000004"><g transform="matrix(1,0,0,1,0,0)"><svg width="395.52000000000004" viewBox="1.65 -36.5 285.88 36.9" height="51.04822665267575" data-palette-color="#ffffff"><path d="M9.5 0L5.25 0 5.25-35.85 8.85-35.85Q9.5-35.85 9.83-35.73 10.15-35.6 10.5-35L10.5-35 22.9-12.95Q23.3-12.3 23.53-11.68 23.75-11.05 24-10.35L24-10.35Q24.25-11 24.53-11.68 24.8-12.35 25.15-13L25.15-13 37.3-35Q37.65-35.6 37.98-35.73 38.3-35.85 38.95-35.85L38.95-35.85 42.55-35.85 42.55 0 38.3 0 38.3-26.35Q38.3-26.85 38.33-27.45 38.35-28.05 38.4-28.7L38.4-28.7 26.1-6.3Q25.5-5.15 24.35-5.15L24.35-5.15 23.65-5.15Q22.55-5.15 21.9-6.3L21.9-6.3 9.35-28.75Q9.45-28.1 9.47-27.48 9.5-26.85 9.5-26.35L9.5-26.35 9.5 0ZM6.75 0L1.65 0 1.65-2.05Q1.65-2.5 1.85-2.78 2.05-3.05 2.45-3.1L2.45-3.1 6.2-3.9 6.75 0ZM13.6 0L8.5 0 9.05-3.9 12.8-3.1Q13.2-3.05 13.4-2.78 13.6-2.5 13.6-2.05L13.6-2.05 13.6 0ZM1.65-35.85L6.75-35.85 6.2-31.95 2.45-32.75Q2.05-32.85 1.85-33.1 1.65-33.35 1.65-33.8L1.65-33.8 1.65-35.85ZM39.3 0L34.2 0 34.2-2.05Q34.2-2.5 34.4-2.78 34.6-3.05 35-3.1L35-3.1 38.75-3.9 39.3 0ZM46.15 0L41.05 0 41.6-3.9 45.35-3.1Q45.75-3.05 45.95-2.78 46.15-2.5 46.15-2.05L46.15-2.05 46.15 0ZM41.05-35.85L46.15-35.85 46.15-33.8Q46.15-33.35 45.95-33.1 45.75-32.85 45.35-32.75L45.35-32.75 41.6-31.95 41.05-35.85ZM61.6-25.75L61.6-25.75Q65.4-25.75 68.07-24.13 70.75-22.5 72.2-19.55 73.65-16.6 73.65-12.7L73.65-12.7Q73.65-8.8 72.2-5.85 70.75-2.9 68.07-1.28 65.4 0.35 61.6 0.35L61.6 0.35Q57.9 0.35 55.17-1.28 52.45-2.9 50.97-5.85 49.5-8.8 49.5-12.7L49.5-12.7Q49.5-16.6 50.97-19.55 52.45-22.5 55.17-24.13 57.9-25.75 61.6-25.75ZM61.6-3.15L61.6-3.15Q65.35-3.15 67.2-5.65 69.05-8.15 69.05-12.65L69.05-12.65Q69.05-15.7 68.22-17.82 67.4-19.95 65.75-21.1 64.1-22.25 61.6-22.25L61.6-22.25Q59.05-22.25 57.37-21.08 55.7-19.9 54.9-17.75 54.1-15.6 54.1-12.65L54.1-12.65Q54.1-8.3 55.95-5.73 57.8-3.15 61.6-3.15ZM91.65 0L87.65 0 77.3-25.35 80.95-25.35Q81.5-25.35 81.85-25.08 82.2-24.8 82.35-24.4L82.35-24.4 88.75-8.1Q89-7.45 89.22-6.6 89.45-5.75 89.7-4.55L89.7-4.55Q89.9-5.4 90.12-6.3 90.35-7.2 90.7-8.1L90.7-8.1 97.2-24.4Q97.35-24.8 97.67-25.08 98-25.35 98.5-25.35L98.5-25.35 102-25.35 91.65 0ZM84.15-24.1L80.4-24.1 80.4-25.35 84.15-25.35 84.15-24.1ZM99.7-24.1L95.95-24.1 95.95-25.35 99.7-25.35 99.7-24.1ZM75.6-25.35L80.7-25.35 80.15-21.45 76.4-22.25Q76-22.35 75.8-22.6 75.6-22.85 75.6-23.3L75.6-23.3 75.6-25.35ZM81.85-25.35L86.95-25.35 86.95-23.3Q86.95-22.85 86.75-22.6 86.55-22.35 86.15-22.25L86.15-22.25 82.4-21.45 81.85-25.35ZM92.35-25.35L97.45-25.35 96.9-21.45 93.15-22.25Q92.75-22.35 92.55-22.6 92.35-22.85 92.35-23.3L92.35-23.3 92.35-25.35ZM98.6-25.35L103.7-25.35 103.7-23.3Q103.7-22.85 103.5-22.6 103.3-22.35 102.9-22.25L102.9-22.25 99.15-21.45 98.6-25.35ZM114.04 0L109.59 0 109.59-25.35 114.04-25.35 114.04 0ZM111.09 0L105.99 0 105.99-2.05Q105.99-2.5 106.19-2.78 106.39-3.05 106.79-3.1L106.79-3.1 110.54-3.9 111.09 0ZM117.64 0L112.54 0 113.09-3.9 116.84-3.1Q117.24-3.05 117.44-2.78 117.64-2.5 117.64-2.05L117.64-2.05 117.64 0ZM105.99-25.35L111.09-25.35 110.54-21.45 106.79-22.25Q106.39-22.35 106.19-22.6 105.99-22.85 105.99-23.3L105.99-23.3 105.99-25.35ZM111.74-30.15L111.74-30.15Q110.49-30.15 109.54-31.1 108.59-32.05 108.59-33.3L108.59-33.3Q108.59-34.6 109.54-35.55 110.49-36.5 111.74-36.5L111.74-36.5Q113.04-36.5 113.99-35.55 114.94-34.6 114.94-33.3L114.94-33.3Q114.94-32.05 113.99-31.1 113.04-30.15 111.74-30.15ZM132.09 0.35L132.09 0.35Q128.44 0.35 125.72-1.3 122.99-2.95 121.49-6 119.99-9.05 119.99-13.2L119.99-13.2Q119.99-16.75 121.44-19.6 122.89-22.45 125.57-24.1 128.24-25.75 131.84-25.75L131.84-25.75Q134.99-25.75 137.34-24.35 139.69-22.95 141.02-20.43 142.34-17.9 142.34-14.4L142.34-14.4Q142.34-13.35 142.12-13 141.89-12.65 141.24-12.65L141.24-12.65 124.39-12.65Q124.39-12.5 124.39-12.33 124.39-12.15 124.39-12L124.39-12Q124.64-7.8 126.74-5.48 128.84-3.15 132.44-3.15L132.44-3.15Q133.99-3.15 135.52-3.78 137.04-4.4 138.22-5 139.39-5.6 139.89-5.6L139.89-5.6Q140.44-5.6 140.74-5.2L140.74-5.2 141.99-3.55Q140.99-2.25 139.32-1.38 137.64-0.5 135.74-0.08 133.84 0.35 132.09 0.35ZM124.54-15.45L124.54-15.45 138.34-15.45Q138.34-18.55 136.64-20.5 134.94-22.45 131.94-22.45L131.94-22.45Q128.69-22.45 126.84-20.6 124.99-18.75 124.54-15.45ZM166.54 0L162.29 0 162.29-35.85 164.79-35.85Q165.44-35.85 165.79-35.7 166.14-35.55 166.49-35L166.49-35 187.24-8Q187.14-8.65 187.11-9.28 187.09-9.9 187.09-10.45L187.09-10.45 187.09-35.85 191.34-35.85 191.34 0 188.89 0Q188.34 0 187.96-0.2 187.59-0.4 187.19-0.9L187.19-0.9 166.44-27.85Q166.49-27.25 166.51-26.65 166.54-26.05 166.54-25.55L166.54-25.55 166.54 0ZM163.79 0L158.69 0 158.69-2.05Q158.69-2.5 158.89-2.78 159.09-3.05 159.49-3.1L159.49-3.1 163.24-3.9 163.79 0ZM170.64 0L165.54 0 166.09-3.9 169.84-3.1Q170.24-3.05 170.44-2.78 170.64-2.5 170.64-2.05L170.64-2.05 170.64 0ZM158.69-35.85L163.79-35.85 163.24-31.95 159.49-32.75Q159.09-32.85 158.89-33.1 158.69-33.35 158.69-33.8L158.69-33.8 158.69-35.85ZM182.99-35.85L188.09-35.85 187.54-31.95 183.79-32.75Q183.39-32.85 183.19-33.1 182.99-33.35 182.99-33.8L182.99-33.8 182.99-35.85ZM189.84-35.85L194.94-35.85 194.94-33.8Q194.94-33.35 194.74-33.1 194.54-32.85 194.14-32.75L194.14-32.75 190.39-31.95 189.84-35.85ZM210.43-25.75L210.43-25.75Q214.23-25.75 216.91-24.13 219.58-22.5 221.03-19.55 222.48-16.6 222.48-12.7L222.48-12.7Q222.48-8.8 221.03-5.85 219.58-2.9 216.91-1.28 214.23 0.35 210.43 0.35L210.43 0.35Q206.73 0.35 204.01-1.28 201.28-2.9 199.81-5.85 198.33-8.8 198.33-12.7L198.33-12.7Q198.33-16.6 199.81-19.55 201.28-22.5 204.01-24.13 206.73-25.75 210.43-25.75ZM210.43-3.15L210.43-3.15Q214.18-3.15 216.03-5.65 217.88-8.15 217.88-12.65L217.88-12.65Q217.88-15.7 217.06-17.82 216.23-19.95 214.58-21.1 212.93-22.25 210.43-22.25L210.43-22.25Q207.88-22.25 206.21-21.08 204.53-19.9 203.73-17.75 202.93-15.6 202.93-12.65L202.93-12.65Q202.93-8.3 204.78-5.73 206.63-3.15 210.43-3.15ZM235.08 0.4L235.08 0.4Q232.08 0.4 230.46-1.28 228.83-2.95 228.83-6.1L228.83-6.1 228.83-21.6 225.78-21.6Q225.38-21.6 225.11-21.85 224.83-22.1 224.83-22.6L224.83-22.6 224.83-24.35 228.98-24.9 230.03-32.7Q230.13-33.55 231.03-33.55L231.03-33.55 233.28-33.55 233.28-24.85 240.53-24.85 240.53-21.6 233.28-21.6 233.28-6.4Q233.28-4.8 234.06-4.03 234.83-3.25 236.08-3.25L236.08-3.25Q236.63-3.25 237.28-3.55 237.93-3.85 238.48-4.15 239.03-4.45 239.28-4.45L239.28-4.45Q239.63-4.45 239.88-4.05L239.88-4.05 241.18-1.9Q240.03-0.85 238.41-0.23 236.78 0.4 235.08 0.4ZM256.13 0.35L256.13 0.35Q252.48 0.35 249.75-1.3 247.03-2.95 245.53-6 244.03-9.05 244.03-13.2L244.03-13.2Q244.03-16.75 245.48-19.6 246.93-22.45 249.6-24.1 252.28-25.75 255.88-25.75L255.88-25.75Q259.03-25.75 261.38-24.35 263.73-22.95 265.05-20.43 266.38-17.9 266.38-14.4L266.38-14.4Q266.38-13.35 266.15-13 265.93-12.65 265.28-12.65L265.28-12.65 248.43-12.65Q248.43-12.5 248.43-12.33 248.43-12.15 248.43-12L248.43-12Q248.68-7.8 250.78-5.48 252.88-3.15 256.48-3.15L256.48-3.15Q258.03-3.15 259.55-3.78 261.08-4.4 262.25-5 263.43-5.6 263.93-5.6L263.93-5.6Q264.48-5.6 264.78-5.2L264.78-5.2 266.03-3.55Q265.03-2.25 263.35-1.38 261.68-0.5 259.78-0.08 257.88 0.35 256.13 0.35ZM248.58-15.45L248.58-15.45 262.38-15.45Q262.38-18.55 260.68-20.5 258.98-22.45 255.98-22.45L255.98-22.45Q252.73-22.45 250.88-20.6 249.03-18.75 248.58-15.45ZM278.03 0.4L278.03 0.4Q276.23 0.4 274 0 271.78-0.4 270.18-1L270.18-1 270.18-4.7 272.38-4.2Q273.03-3.75 274.45-3.28 275.88-2.8 277.78-2.8L277.78-2.8Q280.63-2.8 281.98-3.98 283.33-5.15 283.33-6.85L283.33-6.85Q283.33-8.35 282.43-9.15 281.53-9.95 280.03-10.45 278.53-10.95 276.78-11.5L276.78-11.5Q274.98-12.1 273.48-12.9 271.98-13.7 271.08-14.98 270.18-16.25 270.18-18.2L270.18-18.2Q270.18-20.45 271.35-22.15 272.53-23.85 274.55-24.8 276.58-25.75 279.13-25.75L279.13-25.75Q280.58-25.75 282.35-25.4 284.13-25.05 286.23-24.35L286.23-24.35 286.23-21.35 283.58-21.7Q282.53-22 281.45-22.2 280.38-22.4 279.38-22.4L279.38-22.4Q277.93-22.4 276.8-21.95 275.68-21.5 275.03-20.7 274.38-19.9 274.38-18.85L274.38-18.85Q274.38-17.45 275.45-16.63 276.53-15.8 278.08-15.3 279.63-14.8 281.03-14.35L281.03-14.35Q282.68-13.85 284.15-13.05 285.63-12.25 286.58-10.95 287.53-9.65 287.53-7.55L287.53-7.55Q287.53-5.3 286.35-3.5 285.18-1.7 283.05-0.65 280.93 0.4 278.03 0.4ZM283.53-18.65L283.03-22.4 286.23-21.75 286.23-17.85 284.58-17.85Q284.08-17.85 283.83-18.07 283.58-18.3 283.53-18.65L283.53-18.65ZM272.88-6.8L273.38-3.05 270.18-3.7 270.18-7.6 271.83-7.6Q272.38-7.6 272.6-7.38 272.83-7.15 272.88-6.8L272.88-6.8Z" opacity="1" transform="matrix(1,0,0,1,0,0)" fill="#ffffff" class="wordmark-text-0" data-fill-palette-color="primary" id="text-0"></path></svg></g></svg></g></svg></g></svg></g><g><svg viewBox="0 0 20.789106236193373 133.6442573767051" height="133.6442573767051" width="20.789106236193373"><g><svg xmlns="http://www.w3.org/2000/svg" xmlns:xlink="http://www.w3.org/1999/xlink" xmlns:sketch="http://www.bohemiancoding.com/sketch/ns" viewBox="45 2 14 90.000002021081" version="1.1" x="0" y="0" height="133.6442573767051" width="20.789106236193373" class="icon-icon-0" data-fill-palette-color="accent" id="icon-0"><g fill="#ffdc00" fill-rule="evenodd" data-fill-palette-color="accent"><g fill="#ffdc00" data-fill-palette-color="accent"><path d="M45.995 2H54.005C54.545 2 55 2.446 55 2.995V89H54V90H55V91.005A0.993 0.993 0 0 1 54.005 92H45.995C45.455 92 45 91.554 45 91.005V90H46V89H45V2.995C45 2.442 45.446 2 45.995 2M47 4V87H53V4ZM47 4" fill="#ffdc00" data-fill-palette-color="accent"></path><g fill="#ffdc00" data-fill-palette-color="accent"><path d="M46 7V9H55V7zM46 7" fill="#ffdc00" data-fill-palette-color="accent"></path><path d="M46 29V31H55V29zM46 29" fill="#ffdc00" data-fill-palette-color="accent"></path><path d="M55 7V9H57V7zM55 7" fill="#ffdc00" data-fill-palette-color="accent"></path><path d="M57 7V25H59V7zM57 7" fill="#ffdc00" data-fill-palette-color="accent"></path><path d="M55 23H59V28H55V26H57V25H55ZM55 23" fill="#ffdc00" data-fill-palette-color="accent"></path></g></g></g></svg></g></svg></g></svg></g><defs></defs></svg><rect width="395.52" height="123.39838300056839" fill="none" stroke="none" visibility="hidden"></rect></g></svg></g></svg>