<svg data-v-fde0c5aa="" xmlns="http://www.w3.org/2000/svg" viewBox="0 0 300 300" class="iconLeft"><!----><defs data-v-fde0c5aa=""><linearGradient data-v-fde0c5aa="" gradientTransform="rotate(25)" id="8e76bb06-4ae8-44a7-a141-426c14d0bba1" x1="0%" y1="0%" x2="100%" y2="0%"><stop data-v-fde0c5aa="" offset="0%" stop-color="#0D2175" stop-opacity="1"></stop><stop data-v-fde0c5aa="" offset="100%" stop-color="#1F1EFB" stop-opacity="1"></stop></linearGradient></defs><rect data-v-fde0c5aa="" fill="url(#8e76bb06-4ae8-44a7-a141-426c14d0bba1)" x="0" y="0" width="300px" height="300px" class="logo-background-square"></rect><defs data-v-fde0c5aa=""><!----></defs><g data-v-fde0c5aa="" id="e9dbc007-b684-4e7f-9e17-1ff985e5d7a6" fill="#ffffff" transform="matrix(2.295751292884633,0,0,2.295751292884633,84.65051831298034,128.69542806771258)"><path d="M5.25 9.49L3.18 4.26L0.92 4.26L0.92 14.92L2.77 14.92L2.77 7.77L4.42 11.79L5.92 11.79L7.59 7.76L7.59 14.92L9.44 14.92L9.44 4.26L7.32 4.26ZM12.94 9.63C12.94 8.37 13.27 8.01 14.24 8.01C15.20 8.01 15.54 8.37 15.54 9.63L15.54 11.80C15.54 13.06 15.20 13.44 14.24 13.44C13.27 13.44 12.94 13.06 12.94 11.80ZM14.24 6.34C12.05 6.34 11.05 7.34 11.05 9.65L11.05 11.79C11.05 14.11 12.05 15.09 14.24 15.09C16.42 15.09 17.43 14.11 17.43 11.79L17.43 9.65C17.43 7.34 16.42 6.34 14.24 6.34ZM21.74 12.77L20.36 6.51L18.23 6.51L20.54 14.92L22.93 14.92L25.23 6.51L23.16 6.51ZM28.14 6.51L26.25 6.51L26.25 14.92L28.14 14.92ZM28.14 3.47L26.25 3.47L26.25 5.28L28.14 5.28ZM34.20 12.40C34.16 13.13 33.85 13.54 32.89 13.54C31.92 13.54 31.54 13.02 31.54 11.98L31.54 11.28L36.02 11.28L36.02 9.55C36.02 7.34 35 6.34 32.89 6.34C30.73 6.34 29.69 7.49 29.69 9.58L29.69 11.79C29.69 14.11 30.72 15.09 32.90 15.09C35.06 15.09 35.90 14.15 35.95 12.40ZM32.90 7.91C33.87 7.91 34.23 8.43 34.23 9.53L34.23 9.84L31.54 9.84L31.54 9.59C31.54 8.39 31.92 7.91 32.90 7.91ZM41.06 4.26L41.06 14.92L42.88 14.92L42.88 7.85L46.31 14.92L48.27 14.92L48.27 4.26L46.47 4.26L46.47 11.48L43.06 4.26ZM51.77 9.63C51.77 8.37 52.11 8.01 53.07 8.01C54.04 8.01 54.38 8.37 54.38 9.63L54.38 11.80C54.38 13.06 54.04 13.44 53.07 13.44C52.11 13.44 51.77 13.06 51.77 11.80ZM53.07 6.34C50.89 6.34 49.88 7.34 49.88 9.65L49.88 11.79C49.88 14.11 50.89 15.09 53.07 15.09C55.26 15.09 56.27 14.11 56.27 11.79L56.27 9.65C56.27 7.34 55.26 6.34 53.07 6.34ZM60.73 13.38C59.95 13.38 59.65 13.08 59.65 12.01L59.65 8.55L61.33 8.55L61.33 6.92L59.65 6.92L59.65 4.97L57.72 4.97L57.72 11.96C57.72 14.07 58.34 15.09 60.28 15.09C60.72 15.09 61.15 15.04 61.33 14.99L61.33 13.31C61.17 13.36 60.94 13.38 60.73 13.38ZM67.13 12.40C67.09 13.13 66.78 13.54 65.81 13.54C64.85 13.54 64.47 13.02 64.47 11.98L64.47 11.28L68.95 11.28L68.95 9.55C68.95 7.34 67.93 6.34 65.81 6.34C63.66 6.34 62.62 7.49 62.62 9.58L62.62 11.79C62.62 14.11 63.64 15.09 65.83 15.09C67.98 15.09 68.82 14.15 68.88 12.40ZM65.83 7.91C66.79 7.91 67.16 8.43 67.16 9.53L67.16 9.84L64.47 9.84L64.47 9.59C64.47 8.39 64.85 7.91 65.83 7.91ZM73.49 9.77C72.41 9.60 72.07 9.38 72.07 8.74C72.07 8.26 72.42 7.95 73.23 7.95C74.13 7.95 74.47 8.33 74.48 8.96L76.22 8.96C76.22 7.28 75.19 6.34 73.22 6.34C71.37 6.34 70.25 7.22 70.25 8.82C70.25 10.58 71.30 11.20 73.04 11.44C74.13 11.58 74.52 11.82 74.52 12.57C74.52 13.16 74.09 13.48 73.29 13.48C72.31 13.48 71.90 13.12 71.89 12.42L70.10 12.42C70.10 14.10 71.08 15.09 73.18 15.09C75.18 15.09 76.38 14.17 76.38 12.45C76.38 10.56 75.00 10.00 73.49 9.77Z"></path></g><defs data-v-fde0c5aa=""><!----></defs><g data-v-fde0c5aa="" id="3fd3f254-87c7-4574-a4d1-3aca9d95705c" stroke="none" fill="#ffffff" transform="matrix(0.416822340009243,0,0,0.416822340009243,35.83177659990757,129.15888299953784)"><path d="M65.095 5H64V3a1 1 0 10-2 0v2h-9V3a1 1 0 10-2 0v2h-9V3a1 1 0 00-2 0v2h-9V3a1 1 0 00-2 0v2H19V3a1 1 0 00-2 0v2h-1.095A5.91 5.91 0 0010 10.904v81.191A5.911 5.911 0 0015.905 98h49.189A5.911 5.911 0 0071 92.096V10.904A5.91 5.91 0 0065.095 5zM12 10.904A3.909 3.909 0 0115.905 7H17v1.212c-1.732.562-2.996 2.172-2.996 4.089 0 2.381 1.937 4.318 4.317 4.318s4.317-1.937 4.317-4.318c0-2.148-1.582-3.92-3.638-4.249V7h10v1.047c-2.082.307-3.69 2.088-3.69 4.254 0 2.381 1.937 4.318 4.317 4.318s4.317-1.937 4.317-4.318c0-1.898-1.239-3.496-2.945-4.073V7h9v1.092a4.32 4.32 0 00-3.383 4.209 4.323 4.323 0 004.317 4.318 4.323 4.323 0 004.318-4.318c0-2.01-1.388-3.69-3.252-4.168V7h9v1.188c-1.773.537-3.076 2.168-3.076 4.114a4.323 4.323 0 004.317 4.318 4.322 4.322 0 004.317-4.318c0-2.121-1.54-3.88-3.559-4.241V7h9v1.283c-1.615.625-2.769 2.185-2.769 4.018a4.322 4.322 0 004.316 4.318 4.322 4.322 0 004.317-4.318c0-2.226-1.699-4.042-3.865-4.271V7h1.095A3.91 3.91 0 0169 10.904V25H12V10.904zM18 13a1 1 0 001-1v-1.903a2.312 2.312 0 011.638 2.204 2.32 2.32 0 01-2.317 2.318A2.314 2.314 0 0117 10.402V12a1 1 0 001 1zm12 0a1 1 0 001-1v-1.556a2.31 2.31 0 01.945 1.857c0 1.278-1.04 2.318-2.317 2.318s-2.317-1.04-2.317-2.318c0-1.059.718-1.944 1.69-2.22V12A.999.999 0 0030 13zm11 0a1 1 0 001-1v-1.744a2.31 2.31 0 011.252 2.045 2.32 2.32 0 01-2.318 2.318 2.32 2.32 0 01-2.317-2.318c0-.945.57-1.757 1.383-2.117V12a1 1 0 001 1zm11 0a1 1 0 001-1v-1.878a2.313 2.313 0 011.559 2.179 2.32 2.32 0 01-2.317 2.318 2.313 2.313 0 01-1.241-4.268V12A.998.998 0 0052 13zm11 0a1 1 0 001-1v-1.97a2.32 2.32 0 011.865 2.271c0 1.278-1.04 2.318-2.317 2.318s-2.316-1.04-2.316-2.318c0-.681.3-1.288.769-1.711V12A.998.998 0 0063 13zm2.095 83h-49.19A3.909 3.909 0 0112 92.096V27h57v65.096A3.909 3.909 0 0165.095 96z"></path><path d="M63 36H19a1 1 0 000 2h44a1 1 0 100-2zM63 47H19a1 1 0 000 2h44a1 1 0 100-2zM63 57H19a1 1 0 100 2h44a1 1 0 100-2zM63 67H19a1 1 0 100 2h44a1 1 0 100-2zM63 78H19a1 1 0 100 2h44a1 1 0 100-2zM84.014 36.54a2.565 2.565 0 002.562-2.562c0-1.413-1.149-2.562-2.562-2.562s-2.561 1.149-2.561 2.562a2.564 2.564 0 002.561 2.562zm0-3.124a.562.562 0 11-.001 1.125.562.562 0 01.001-1.125z"></path><path d="M90 64a1 1 0 00-1 1V53.056c-.003-.076-.231-7.562-.201-9.319.009-.484.179-.908.328-1.282.207-.518.465-1.162.045-1.782-.401-.593-1.151-.663-1.622-.671l1.621-6.771c.017-.022.037-.04.052-.063a1 1 0 00-.319-1.377c-2.994-1.869-3.857-2.612-3.857-7.216a1 1 0 00-1-1c-.006 0-.011.003-.017.003-.005 0-.01-.003-.016-.003a1 1 0 00-1 1c0 4.605-.863 5.348-3.855 7.216a1 1 0 00-.319 1.377c.015.024.035.041.052.063l1.621 6.778c-.607.018-1.239.129-1.605.662-.424.616-.176 1.266.024 1.788.143.373.304.795.312 1.278.031 1.754-.24 9.238-.243 9.35v11.52a.986.986 0 00-.927-.607h-.004c-.553 0-.998.418-.996.97l.003.648a.99.99 0 00.003.774l.1 23.728c-.033.442-.146 3.04 1.571 4.938 1.17 1.294 2.878 1.95 5.075 1.95 3.124 0 5.162-.77 6.231-2.353.944-1.396.943-3.154.943-4.794V65a1 1 0 00-1-1zm-8-22h5.157c-.165.436-.346 1.014-.358 1.701-.031 1.806.192 9.106.201 9.385V64h-6V53.122c0-.31.275-7.613.244-9.422-.014-.687-.191-1.267-.35-1.7H82zm2.03-11.962c.657 1.209 1.672 2.06 3.128 3.01l-1.648 6.883c-.006.023.001.046-.003.069h-2.955c-.003-.023.004-.045-.002-.069l-1.646-6.883c1.455-.95 2.469-1.801 3.126-3.01zM89 89.95c0 1.387.001 2.698-.6 3.587-.669.99-2.165 1.473-4.574 1.473-1.602 0-2.808-.429-3.582-1.279-1.248-1.368-1.071-3.446-1.069-3.463.003-.035.005-.061.005-.096L79.083 67H89v22.95z"></path><path d="M84.037 92.822c1.762 0 3.663-1.209 3.663-3.162 0-.855-.28-1.423-.506-1.878-.211-.429-.379-.767-.381-1.43-.004-.853-.002-1.724 0-2.633.001-.891.003-1.818 0-2.801-.003-.851-.002-1.862-.002-2.937.001-1.431.002-2.974-.005-4.4-.002-.317.001-.611.003-.884.013-1.4.021-2.412-.659-3.099-.4-.403-.958-.6-1.706-.6h-.777c-.748 0-1.307.196-1.707.601-.68.686-.672 1.697-.659 3.099.002.271.005.565.003.884a884.124 884.124 0 00-.005 4.63c0 1.103.001 2.135-.002 2.968-.002.978-.001 1.87 0 2.726.002.881.003 1.722 0 2.578-.002.654-.166.974-.374 1.378-.229.444-.513.998-.513 1.861 0 1.94 1.844 3.099 3.627 3.099zm-1.336-4.045c.25-.486.593-1.152.596-2.286.003-.859.002-1.704 0-2.588-.001-.854-.002-1.743 0-2.717.003-.835.002-1.869.002-2.975-.001-1.52-.002-3.173.005-4.618.002-.328-.001-.632-.003-.912-.006-.67-.014-1.504.043-1.646.001 0 .081-.036.323-.036h.777c.17 0 .263.019.279.011.099.231.092 1.026.086 1.67-.002.281-.005.585-.003.912.007 1.423.006 2.961.005 4.388 0 1.078-.001 2.093.002 2.945.003.979.001 1.902 0 2.79-.002.913-.004 1.788 0 2.645.004 1.126.328 1.781.588 2.308.187.377.299.604.299.992 0 .685-.877 1.162-1.663 1.162-.656 0-1.627-.35-1.627-1.099 0-.379.11-.592.291-.946z"></path></g><!----></svg>