<svg data-v-fde0c5aa="" xmlns="http://www.w3.org/2000/svg" viewBox="0 0 300 300" class="font"><!----><defs data-v-fde0c5aa=""><linearGradient data-v-fde0c5aa="" gradientTransform="rotate(25)" id="aa2ee903-bea9-4ccd-b744-ed7925cf17b4" x1="0%" y1="0%" x2="100%" y2="0%"><stop data-v-fde0c5aa="" offset="0%" stop-color="#0D2175" stop-opacity="1"></stop><stop data-v-fde0c5aa="" offset="100%" stop-color="#1F1EFB" stop-opacity="1"></stop></linearGradient></defs><rect data-v-fde0c5aa="" fill="url(#aa2ee903-bea9-4ccd-b744-ed7925cf17b4)" x="0" y="0" width="300px" height="300px" class="logo-background-square"></rect><defs data-v-fde0c5aa=""><!----></defs><g data-v-fde0c5aa="" id="8cd1988d-3ab7-473f-a06e-f1c129ce8104" fill="#ffffff" transform="matrix(2.915451930415796,0,0,2.915451930415796,37.317784175360615,122.94460616915318)"><path d="M5.25 9.49L3.18 4.26L0.92 4.26L0.92 14.92L2.77 14.92L2.77 7.77L4.42 11.79L5.92 11.79L7.59 7.76L7.59 14.92L9.44 14.92L9.44 4.26L7.32 4.26ZM12.94 9.63C12.94 8.37 13.27 8.01 14.24 8.01C15.20 8.01 15.54 8.37 15.54 9.63L15.54 11.80C15.54 13.06 15.20 13.44 14.24 13.44C13.27 13.44 12.94 13.06 12.94 11.80ZM14.24 6.34C12.05 6.34 11.05 7.34 11.05 9.65L11.05 11.79C11.05 14.11 12.05 15.09 14.24 15.09C16.42 15.09 17.43 14.11 17.43 11.79L17.43 9.65C17.43 7.34 16.42 6.34 14.24 6.34ZM21.74 12.77L20.36 6.51L18.23 6.51L20.54 14.92L22.93 14.92L25.23 6.51L23.16 6.51ZM28.14 6.51L26.25 6.51L26.25 14.92L28.14 14.92ZM28.14 3.47L26.25 3.47L26.25 5.28L28.14 5.28ZM34.20 12.40C34.16 13.13 33.85 13.54 32.89 13.54C31.92 13.54 31.54 13.02 31.54 11.98L31.54 11.28L36.02 11.28L36.02 9.55C36.02 7.34 35 6.34 32.89 6.34C30.73 6.34 29.69 7.49 29.69 9.58L29.69 11.79C29.69 14.11 30.72 15.09 32.90 15.09C35.06 15.09 35.90 14.15 35.95 12.40ZM32.90 7.91C33.87 7.91 34.23 8.43 34.23 9.53L34.23 9.84L31.54 9.84L31.54 9.59C31.54 8.39 31.92 7.91 32.90 7.91ZM41.06 4.26L41.06 14.92L42.88 14.92L42.88 7.85L46.31 14.92L48.27 14.92L48.27 4.26L46.47 4.26L46.47 11.48L43.06 4.26ZM51.77 9.63C51.77 8.37 52.11 8.01 53.07 8.01C54.04 8.01 54.38 8.37 54.38 9.63L54.38 11.80C54.38 13.06 54.04 13.44 53.07 13.44C52.11 13.44 51.77 13.06 51.77 11.80ZM53.07 6.34C50.89 6.34 49.88 7.34 49.88 9.65L49.88 11.79C49.88 14.11 50.89 15.09 53.07 15.09C55.26 15.09 56.27 14.11 56.27 11.79L56.27 9.65C56.27 7.34 55.26 6.34 53.07 6.34ZM60.73 13.38C59.95 13.38 59.65 13.08 59.65 12.01L59.65 8.55L61.33 8.55L61.33 6.92L59.65 6.92L59.65 4.97L57.72 4.97L57.72 11.96C57.72 14.07 58.34 15.09 60.28 15.09C60.72 15.09 61.15 15.04 61.33 14.99L61.33 13.31C61.17 13.36 60.94 13.38 60.73 13.38ZM67.13 12.40C67.09 13.13 66.78 13.54 65.81 13.54C64.85 13.54 64.47 13.02 64.47 11.98L64.47 11.28L68.95 11.28L68.95 9.55C68.95 7.34 67.93 6.34 65.81 6.34C63.66 6.34 62.62 7.49 62.62 9.58L62.62 11.79C62.62 14.11 63.64 15.09 65.83 15.09C67.98 15.09 68.82 14.15 68.88 12.40ZM65.83 7.91C66.79 7.91 67.16 8.43 67.16 9.53L67.16 9.84L64.47 9.84L64.47 9.59C64.47 8.39 64.85 7.91 65.83 7.91ZM73.49 9.77C72.41 9.60 72.07 9.38 72.07 8.74C72.07 8.26 72.42 7.95 73.23 7.95C74.13 7.95 74.47 8.33 74.48 8.96L76.22 8.96C76.22 7.28 75.19 6.34 73.22 6.34C71.37 6.34 70.25 7.22 70.25 8.82C70.25 10.58 71.30 11.20 73.04 11.44C74.13 11.58 74.52 11.82 74.52 12.57C74.52 13.16 74.09 13.48 73.29 13.48C72.31 13.48 71.90 13.12 71.89 12.42L70.10 12.42C70.10 14.10 71.08 15.09 73.18 15.09C75.18 15.09 76.38 14.17 76.38 12.45C76.38 10.56 75.00 10.00 73.49 9.77Z"></path></g><!----><!----></svg>